<?xml version="1.0" encoding="UTF-8" standalone="no"?>
<!DOCTYPE svg PUBLIC "-//W3C//DTD SVG 1.1//EN"
 "http://www.w3.org/Graphics/SVG/1.1/DTD/svg11.dtd">
<!-- Generated by graphviz version 2.43.0 (0)
 -->
<!-- Title: Graphical Class Hierarchy Pages: 1 -->
<svg width="261pt" height="64pt"
 viewBox="0.00 0.00 261.00 64.00" xmlns="http://www.w3.org/2000/svg" xmlns:xlink="http://www.w3.org/1999/xlink">
<g id="graph0" class="graph" transform="scale(1 1) rotate(0) translate(4 60)">
<title>Graphical Class Hierarchy</title>
<!-- Node0 -->
<g id="Node000000" class="node">
<title>Node0</title>
<g id="a_Node000000"><a xlink:href="classarpg_1_1screen.html" target="_top" xlink:title="A game mode: menu, roguelike map, dungeon, pause.">
<polygon fill="white" stroke="#666666" points="77,-37 0,-37 0,-18 77,-18 77,-37"/>
<text text-anchor="middle" x="38.5" y="-25" font-family="Helvetica,sans-Serif" font-size="10.00">arpg::screen</text>
</a>
</g>
</g>
<!-- Node1 -->
<g id="Node000001" class="node">
<title>Node1</title>
<g id="a_Node000001"><a xlink:href="classarpg_1_1dungeon__screen.html" target="_top" xlink:title="A room of the dungeon: the player, what shoots at them, and what they shoot.">
<polygon fill="white" stroke="#666666" points="245,-56 121,-56 121,-37 245,-37 245,-56"/>
<text text-anchor="middle" x="183" y="-44" font-family="Helvetica,sans-Serif" font-size="10.00">arpg::dungeon_screen</text>
</a>
</g>
</g>
<!-- Node0&#45;&gt;Node1 -->
<g id="edge1_Node000000_Node000001" class="edge">
<title>Node0&#45;&gt;Node1</title>
<g id="a_edge1_Node000000_Node000001"><a xlink:title=" ">
<path fill="none" stroke="#63b8ff" d="M87.34,-33.88C98.09,-35.31 109.64,-36.85 120.85,-38.35"/>
<polygon fill="#63b8ff" stroke="#63b8ff" points="87.69,-30.39 77.31,-32.54 86.76,-37.33 87.69,-30.39"/>
</a>
</g>
</g>
<!-- Node2 -->
<g id="Node000002" class="node">
<title>Node2</title>
<g id="a_Node000002"><a xlink:href="classarpg_1_1main__menu__screen.html" target="_top" xlink:title="Title screen, and the only screen there is for now.">
<polygon fill="white" stroke="#666666" points="253,-19 113,-19 113,0 253,0 253,-19"/>
<text text-anchor="middle" x="183" y="-7" font-family="Helvetica,sans-Serif" font-size="10.00">arpg::main_menu_screen</text>
</a>
</g>
</g>
<!-- Node0&#45;&gt;Node2 -->
<g id="edge2_Node000000_Node000002" class="edge">
<title>Node0&#45;&gt;Node2</title>
<g id="a_edge2_Node000000_Node000002"><a xlink:title=" ">
<path fill="none" stroke="#63b8ff" d="M87.4,-21.45C95.6,-20.41 104.25,-19.32 112.86,-18.23"/>
<polygon fill="#63b8ff" stroke="#63b8ff" points="86.8,-18 77.31,-22.72 87.67,-24.94 86.8,-18"/>
</a>
</g>
</g>
</g>
</svg>
